HIERARCHY
ROOT Hips
{
     OFFSET 1.88212 96.90440 -13.34250
     CHANNELS 6 Xposition Yposition Zposition Zrotation Xrotation Yrotation
     JOINT Spine
     {
          OFFSET 0.00000 11.89050 0.00000
          CHANNELS 3 Zrotation Xrotation Yrotation
          JOINT Spine1
          {
               OFFSET -0.00000 25.65740 0.12766
               CHANNELS 3 Zrotation Xrotation Yrotation
               JOINT HEad
               {
                    OFFSET 0.00000 8.73416 0.01134
                    CHANNELS 3 Zrotation Xrotation Yrotation
                    End Site
                    {
                         OFFSET -0.29000 12.77420 2.51395
                    }
               }
               JOINT LeftShoulder1
               {
                    OFFSET 8.99000 -0.36225 -0.22000
                    CHANNELS 3 Zrotation Xrotation Yrotation
                    JOINT LeftArm
                    {
                         OFFSET 10.28270 -0.00338 0.32212
                         CHANNELS 3 Zrotation Xrotation Yrotation
                         JOINT LeftForeArm
                         {
                              OFFSET 32.76690 0.09914 -1.42434
                              CHANNELS 3 Zrotation Xrotation Yrotation
                              JOINT LeftHand
                              {
                                   OFFSET 27.56430 0.08536 1.02216
                                   CHANNELS 3 Zrotation Xrotation Yrotation
                                   End Site
                                   {
                                        OFFSET 16.74430 -0.60000 1.50291
                                   }
                              }
                         }
                    }
               }
               JOINT RightShoulder
               {
                    OFFSET -8.99000 -0.36225 -0.22000
                    CHANNELS 3 Zrotation Xrotation Yrotation
                    JOINT RightArm
                    {
                         OFFSET -10.28270 -0.00338 0.32212
                         CHANNELS 3 Zrotation Xrotation Yrotation
                         JOINT RightForeArm
                         {
                              OFFSET -32.89710 0.09914 -1.42434
                              CHANNELS 3 Zrotation Xrotation Yrotation
                              JOINT RightHand
                              {
                                   OFFSET -27.49210 0.08536 1.02216
                                   CHANNELS 3 Zrotation Xrotation Yrotation
                                   End Site
                                   {
                                        OFFSET -16.63120 -0.60000 1.50291
                                   }
                              }
                         }
                    }
               }
          }
     }
     JOINT LeftUpLeg
     {
          OFFSET 8.94580 -8.66707 0.10165
          CHANNELS 3 Zrotation Xrotation Yrotation
          JOINT LeftLeg
          {
               OFFSET 0.00000 -44.42270 1.37270
               CHANNELS 3 Zrotation Xrotation Yrotation
               JOINT LeftFoot
               {
                    OFFSET -0.25355 -42.09240 -1.46059
                    CHANNELS 3 Zrotation Xrotation Yrotation
                    JOINT LeftToes
                    {
                         OFFSET -0.04000 -4.41509 8.49910
                         CHANNELS 3 Zrotation Xrotation Yrotation
                         End Site
                         {
                              OFFSET 0.08000 -0.04745 9.77979
                         }
                    }
               }
          }
     }
     JOINT RightUpLeg
     {
          OFFSET -8.94580 -8.66707 0.10165
          CHANNELS 3 Zrotation Xrotation Yrotation
          JOINT RightLeg
          {
               OFFSET 0.00000 -44.42270 1.37270
               CHANNELS 3 Zrotation Xrotation Yrotation
               JOINT RightFoot
               {
                    OFFSET 0.25355 -42.09240 -1.46059
                    CHANNELS 3 Zrotation Xrotation Yrotation
                    JOINT RightToes
                    {
                         OFFSET 0.04000 -4.41509 8.49910
                         CHANNELS 3 Zrotation Xrotation Yrotation
                         End Site
                         {
                              OFFSET -0.08000 -0.13745 9.77979
                         }
                    }
               }
          }
     }
}
MOTION
Frames: 17
Frame Time: 0.01667
43.36194 82.73142 -122.00049 0.88113 -5.98576 -30.15161 -6.54186 26.03308 3.83158 -0.04085 0.09677 0.01960 -10.36744 6.03913 15.97613 -32.46060 42.03117 17.48161 -115.93621 -57.37801 -99.85247 -46.51676 54.85086 -86.50408 1.84271 4.66332 4.78246 -17.80621 40.10933 15.58794 86.31200 -27.28108 87.27805 45.67564 50.00325 79.69118 -8.32681 18.00585 11.58679 11.52214 -24.20224 14.57676 31.25602 30.23009 -17.48519 4.15688 -0.12648 0.09828 -29.93778 -20.51535 7.63910 -15.50582 -28.75499 -23.98469 -35.68248 42.75841 54.81119 26.70694 0.05554 0.14128 -22.20537 -28.13092 -3.10561 
43.75990 79.37179 -122.40443 0.70245 -4.82683 -26.75414 -7.57943 30.18409 2.10681 -0.03720 0.08536 0.01293 -10.45693 3.90990 16.24883 -28.46043 38.18485 13.69391 -112.00810 -57.61381 -93.25726 -42.52791 54.83208 -89.61774 8.19423 2.97504 1.32845 -14.07095 36.57877 14.40980 76.15250 -24.74047 76.51401 35.64723 46.85104 90.56971 -0.63874 1.83769 0.04697 11.94690 -30.39257 11.48210 33.93718 36.27821 -17.92295 8.10638 -0.10429 0.09899 -38.26293 -14.79909 -0.34712 -17.62993 -33.32472 -27.33957 -46.07562 48.35772 62.57400 31.77144 0.10264 0.20144 -26.95589 -34.23830 -2.58929 
44.27283 75.14342 -122.99289 1.02882 -3.68117 -21.72233 -8.51771 34.87242 -0.43906 -0.03377 0.07343 0.01285 -10.99323 1.55640 16.46216 -24.59848 34.06627 10.40030 -108.59214 -57.29636 -88.74426 -39.31553 54.82702 -92.14964 2.58448 7.34650 -0.20491 -9.21082 32.83484 12.86622 69.72800 -22.24214 70.23665 29.42081 43.92313 97.00936 -4.84050 11.45946 4.01374 10.50838 -38.73988 6.71790 38.39178 43.16948 -21.22801 11.53312 -0.07210 0.08350 -43.86727 -18.95833 -2.35495 -22.15410 -38.40269 -31.99903 -58.55767 54.45038 72.51154 36.59949 0.11435 0.16125 -32.27223 -39.72219 -2.66013 
44.80090 70.71700 -123.75845 1.32096 -2.85787 -17.23802 -10.17860 40.17427 -1.31152 -0.03305 0.06368 0.00814 -12.04638 -0.93785 16.52205 -20.40131 29.74682 7.22208 -105.81941 -56.86235 -85.58691 -36.89259 54.69189 -94.30119 6.55599 5.80751 -2.32957 -4.01906 28.71957 11.24825 65.89723 -20.24975 66.73758 25.50510 41.74612 101.07001 -1.43882 6.98116 4.39691 8.19732 -47.92976 2.23949 45.51649 50.54200 -28.39019 14.58714 -0.04494 0.07560 -49.13003 -18.17811 -6.47780 -27.69765 -43.57973 -35.69152 -75.09983 59.98587 86.70481 41.56470 0.12139 0.14532 -37.63222 -44.64966 -2.78902 
45.28336 65.88025 -124.65556 1.63740 -2.29960 -13.20472 -12.74890 45.80074 -0.37101 -0.03534 0.05378 0.01088 -13.68092 -3.57767 16.24002 -16.16460 25.26877 4.51924 -103.15857 -56.04180 -82.98409 -34.94534 54.61315 -96.45321 3.94287 8.30161 -2.60080 0.95874 24.33469 9.97977 63.92285 -19.01031 65.01665 24.23783 44.21479 106.26171 -6.88590 13.24323 3.34929 4.84160 -57.57803 -2.23517 56.47696 57.41020 -40.59053 17.50732 -0.02557 0.07136 -54.09803 -20.02763 -9.05364 -34.30769 -48.46745 -38.70968 -96.44386 63.35041 106.15022 46.94489 0.13907 0.13482 -43.73691 -49.07869 -4.41338 
45.62350 61.01369 -125.63448 1.99147 -1.95593 -9.60132 -16.63731 51.43162 2.65701 -0.03834 0.04435 0.00676 -15.92617 -6.41779 15.52943 -11.65670 20.69230 2.01220 -100.89927 -55.16088 -80.88790 -33.50951 54.41352 -98.60593 6.34614 7.51415 -3.54446 5.85528 19.74167 8.57746 62.96788 -18.13807 64.41890 23.10915 45.49084 109.91504 -6.31826 11.73040 1.00700 0.37397 -67.11391 -6.94732 71.58794 62.41182 -58.10953 20.53849 -0.01174 0.06545 -58.10983 -20.69302 -11.62763 -41.65041 -52.70848 -41.01835 -119.07965 63.49506 127.59588 52.81104 0.15479 0.11339 -50.26591 -53.23119 -6.03910 
45.87695 56.01904 -126.46547 2.39593 -1.80740 -6.38087 -22.54469 56.55772 8.38456 -0.04560 0.01997 0.00408 -17.31363 -8.77176 13.81013 -7.14821 16.03246 -0.04389 -98.50021 -54.09549 -78.85458 -32.49425 54.16015 -100.90432 4.99906 9.14079 -3.20558 1.07005 17.25642 16.91957 71.65831 -25.59371 64.96194 21.81681 46.46612 113.23349 4.29593 6.02822 12.41689 -4.90939 -76.16771 -11.82192 89.46040 66.49448 -79.18648 25.52351 -0.01452 0.11536 -62.20314 -21.89018 -13.89791 -48.66023 -56.12598 -41.91051 -135.80383 59.82847 143.10260 60.82323 0.26822 0.07128 -88.24879 -58.79734 -38.49561 
45.98629 51.27238 -127.09570 2.86356 -1.83783 -3.54907 -31.14169 60.63766 17.39635 -0.04744 0.00661 0.00462 -17.86153 -10.53002 11.37569 -2.36851 11.55663 -1.87313 -96.55433 -52.92549 -77.23561 -31.99511 53.77011 -103.08359 6.33281 8.77093 -3.10543 7.63840 12.91660 13.19872 68.67955 -22.54868 67.53506 22.52698 44.24725 112.66604 -5.77810 11.91832 0.93607 -11.16677 -84.13469 -17.18953 106.46779 67.37840 -100.08688 30.09094 -0.00273 0.06737 -65.29330 -22.34925 -15.30906 -54.32693 -58.60155 -40.61605 -148.05809 56.32374 155.00156 68.43282 0.22017 -0.00155 -79.95342 -61.39102 -25.36392 
46.04964 47.01324 -127.37317 3.38271 -2.04298 -1.06687 -42.18250 62.80761 29.47442 -0.05288 -0.02978 0.00830 -17.36754 -12.73589 8.28560 -6.25417 1.60898 2.09169 -79.57215 -46.08976 -67.64613 -32.10899 52.96307 -104.29972 5.34442 9.93471 -2.37048 13.84117 8.83010 9.70768 65.65321 -19.60311 72.10255 23.15715 44.78088 114.18466 10.49390 4.33385 15.29529 4.81668 -90.00000 0.00000 118.40973 67.21076 -116.29153 34.66350 -0.00961 0.03028 -68.01036 -22.16231 -15.71875 -57.83603 -60.04557 -36.52486 -156.97903 53.31580 164.34680 76.08449 0.19396 -0.03534 -93.18597 -63.24707 -34.35825 
45.99413 43.44850 -127.36413 3.92863 -2.38421 1.06849 -51.52864 63.36873 40.05725 0.04669 -0.04899 -0.04027 -17.06740 -15.28801 5.21547 -1.65290 -0.48927 -0.07947 -80.49852 -45.13472 -68.72934 -32.54511 52.03137 -105.19930 5.70837 9.76025 -1.89756 18.18964 5.55240 7.12776 63.94949 -18.35737 74.59959 23.77595 44.89119 115.81628 4.26509 7.07300 -1.33137 154.67943 -84.89266 151.16328 126.15932 67.51887 -128.14474 39.20950 -0.01803 0.00547 -69.94213 -21.86616 -15.77550 -58.72628 -60.35884 -29.54534 -163.82021 51.36615 172.16071 83.59161 0.16841 -0.06394 -94.92667 -64.97870 -31.54119 
46.12343 40.81396 -127.00697 4.49322 -2.84263 2.89156 -58.10553 62.88020 47.95063 0.05001 -0.05496 -0.04913 -16.60622 -18.05729 2.20330 1.65639 -2.18312 -1.64541 -85.40252 -43.47330 -75.29765 -31.54836 49.34371 -106.65508 14.16135 19.59590 -11.56683 15.90874 -3.27075 12.53889 67.84231 -22.66418 70.79076 26.84929 45.22747 113.80843 3.44896 6.44787 6.50932 145.87102 -81.88102 143.69948 136.32648 68.78812 -141.88989 45.06461 0.00914 0.02806 -71.48822 -22.10226 -15.68489 -57.49222 -59.20742 -20.55466 -169.34576 50.73329 178.94061 90.77022 0.14280 -0.08406 -102.35884 -66.37417 -34.50121 
46.37778 39.06645 -126.48038 5.06432 -3.40164 4.43392 -61.98671 61.84808 53.13781 0.04134 -0.04356 -0.04273 -15.95755 -21.05138 -0.74258 3.86324 -3.14342 -2.89601 -91.93317 -40.59959 -84.46173 -33.42773 49.05091 -102.14400 2.26619 7.84686 1.66497 19.11390 -4.14529 9.48019 67.68665 -21.99474 74.10957 28.35444 45.93651 113.97433 -0.65414 8.27337 -3.25979 136.43459 -80.13406 135.55783 144.04999 70.10172 -152.61111 49.94253 0.00498 -0.00170 -72.47263 -22.14929 -15.33147 -55.49438 -56.58956 -11.24678 -175.22267 51.17665 185.83951 90.08940 -0.00488 -0.00349 -99.20991 -67.86115 -33.53044 
47.15323 38.42166 -125.74242 5.61063 -4.05420 5.68321 -61.41819 60.02916 53.73427 0.05166 -0.13037 -0.06732 -14.95975 -23.06885 -2.79556 5.24934 -2.39468 -3.79238 -97.81817 -36.48951 -93.74752 -36.95363 49.17183 -94.50218 18.78134 19.27070 -22.26366 21.70083 -3.42212 6.89576 70.18010 -22.56906 80.14571 27.95184 47.97315 116.66866 -0.25742 17.31734 12.44877 125.39007 -79.45585 125.80991 154.71387 70.58898 -165.39177 55.16228 0.04895 0.03553 -73.40656 -23.15546 -15.33804 -53.76525 -52.81945 -2.91947 -180.35820 53.76155 190.49866 89.40679 0.00577 0.00387 -93.04337 -68.17682 -29.45706 
48.30764 38.42686 -124.93426 6.11355 -4.77280 6.66405 -57.61698 57.84683 50.74376 0.06554 -0.10649 -0.07155 -13.66661 -24.59288 -4.04550 6.05946 -0.26291 -4.61186 -100.99789 -33.95599 -98.42348 -38.88817 49.66285 -90.32105 6.88699 16.32069 -17.81559 23.66624 -1.29593 5.00564 74.88557 -23.87688 87.82268 33.28328 50.73051 111.84392 -2.26228 11.57868 -5.31144 112.05054 -79.49900 113.74994 163.06131 71.39347 -175.01889 59.50173 0.03906 0.00767 -74.10081 -24.03921 -15.22989 -52.78196 -48.41245 3.81216 -186.17094 57.54842 194.70171 88.18320 0.01187 0.02614 -84.16897 -67.49001 -22.50879 
50.21456 39.33415 -123.97993 6.52782 -5.54749 7.33953 -51.82094 55.40853 45.33900 0.07367 -0.07525 -0.07243 -12.11352 -25.78308 -4.54292 8.42834 -8.47384 -8.57094 -99.24833 -38.53312 -88.44232 -38.19434 51.44813 -94.61475 12.94220 16.19397 -10.57828 28.43465 -9.09123 6.46358 69.85349 -24.05671 79.50829 36.84381 52.50631 109.04196 -4.81043 29.43624 15.34634 94.46953 -79.91896 97.49534 171.77975 71.09466 -183.68375 63.76040 0.06923 0.05006 -75.02673 -26.12576 -15.83624 -52.55102 -43.68862 8.92183 -193.77667 62.68615 199.89395 73.26107 0.14913 0.50186 -62.15236 -64.96795 -15.78168 
52.55597 40.62090 -122.98831 6.81774 -6.34161 7.70880 -45.01881 52.67841 38.41399 0.07467 -0.04130 -0.07022 -10.22334 -26.81110 -4.36848 7.94096 -3.57863 -8.25187 -101.45123 -37.86578 -91.34271 -37.96572 52.39356 -96.79215 6.34648 13.22706 -5.62016 28.01419 -4.15700 4.92559 72.22195 -24.78981 82.95354 31.81153 51.65792 113.22086 2.12696 19.03494 -1.14483 72.34496 -79.94403 76.73013 179.50363 71.60320 -190.50795 67.51405 0.06315 0.02629 -75.55926 -27.87921 -16.07541 -52.88022 -38.98579 12.59006 -204.19427 67.90864 208.21599 58.06985 0.08336 0.50478 -42.27187 -62.04673 -11.05241 
55.65514 42.64743 -121.84273 6.91130 -7.08723 7.70962 -37.89050 49.56930 30.63062 0.06971 -0.01387 -0.06783 -7.90653 -27.77200 -3.57265 6.98657 1.20438 -7.56729 -103.19694 -37.93356 -93.31969 -38.23679 52.62467 -97.50322 9.74613 13.32437 -3.51705 27.36325 0.79864 3.97375 76.83247 -27.51709 87.36729 28.24734 51.21174 115.93201 -2.98178 14.16733 7.10953 48.50837 -78.83566 54.28149 187.60190 72.56109 -196.88426 70.96965 0.05832 0.02461 -76.39240 -29.59505 -16.56106 -53.47316 -34.35501 15.05407 -220.64447 72.92841 222.92418 42.74497 0.06600 0.49590 -23.83121 -57.22240 -8.25630 
